<?xml version="1.0" standalone="no"?>
<!DOCTYPE svg PUBLIC "-//W3C//DTD SVG 20010904//EN"
 "http://www.w3.org/TR/2001/REC-SVG-20010904/DTD/svg10.dtd">
<svg version="1.0" xmlns="http://www.w3.org/2000/svg"
 width="1071.000000pt" height="1071.000000pt" viewBox="0 0 1071.000000 1071.000000"
 preserveAspectRatio="xMidYMid meet">
<metadata>
Created by potrace 1.14, written by Peter Selinger 2001-2017
</metadata>
<g transform="translate(0.000000,1071.000000) scale(0.100000,-0.100000)"
fill="#000000" stroke="none">
<path d="M6780 8041 c-93 -30 -174 -101 -217 -189 l-28 -57 0 -1720 c0 -1612
1 -1726 18 -1815 70 -369 234 -680 515 -971 376 -391 783 -586 1307 -629 321
-27 722 57 1005 208 370 199 685 521 867 887 144 289 206 561 206 910 0 355
-64 641 -209 928 -186 370 -531 715 -894 897 -598 299 -1351 254 -1902 -114
-46 -31 -119 -84 -163 -120 l-80 -64 -5 802 -5 801 -26 56 c-56 118 -162 190
-289 195 -41 2 -86 0 -100 -5z m1927 -2046 c393 -59 755 -331 948 -715 85
-169 124 -338 132 -565 6 -189 -6 -291 -52 -450 -110 -380 -431 -727 -797
-859 -133 -48 -231 -67 -388 -73 -376 -15 -692 109 -959 378 -188 189 -308
407 -362 660 -20 88 -23 134 -23 299 0 165 3 211 23 299 98 455 436 836 870
981 174 58 402 75 608 45z"/>
<path d="M463 6659 c-74 -29 -144 -95 -179 -171 -25 -54 -29 -75 -28 -143 1
-76 13 -119 248 -850 136 -423 267 -835 292 -915 25 -80 56 -176 69 -215 13
-38 47 -144 75 -235 29 -91 67 -212 86 -270 18 -58 97 -305 175 -550 78 -245
152 -465 164 -490 32 -62 80 -108 145 -139 46 -22 69 -26 145 -26 76 0 99 4
145 26 65 30 112 75 142 133 12 22 185 554 385 1181 200 627 371 1164 381
1194 l18 53 31 -93 c18 -52 190 -588 383 -1193 193 -604 360 -1116 371 -1137
51 -102 142 -159 263 -167 134 -8 240 43 301 144 20 34 100 269 234 690 111
351 211 664 221 694 10 30 41 127 69 215 28 88 174 549 326 1025 274 858 276
866 273 940 -8 180 -134 309 -313 318 -88 5 -163 -21 -229 -79 -65 -57 -87
-101 -146 -289 -29 -91 -62 -196 -75 -235 -12 -38 -159 -499 -326 -1022 -167
-524 -306 -953 -309 -953 -3 0 -174 525 -379 1168 -205 642 -382 1190 -392
1218 -28 74 -86 135 -160 168 -56 26 -69 28 -158 24 -85 -3 -103 -7 -151 -34
-88 -49 -121 -103 -180 -289 -29 -88 -60 -185 -70 -215 -10 -30 -161 -504
-336 -1053 -303 -953 -318 -997 -330 -965 -7 18 -178 553 -380 1188 -202 635
-375 1172 -386 1192 -31 63 -76 106 -150 143 -62 30 -80 35 -142 34 -46 0 -89
-7 -123 -20z"/>
</g>
</svg>
